# xmcd
#
# Track frame offsets: 
#        150
#        12078
#        24595
#        43318
#        54650
#        73943
#        86058
#        99180
#        112635
#        123698
#        135745
#        153225
#        167853
#        181443
#        191638
#        202478
#        213375
#        227275
#        241228
#        250963
#        266168
#        277483
#        290843
#        303943
#        317780
#
# Disc length: 4376 seconds
#
# Revision: 4
# Processed by: cddbd v1.5.2PL0 Copyright (c) Steve Scherf et al.
# Submitted via: ExactAudioCopy v1.0b6
#
DISCID=7e111619
DTITLE=Tammy Wynette - Tears Of Fire - The 25th Anniversary Collection
DTITLE=[CD 2)
DYEAR=1992
DGENRE=Country
TTITLE0=He Loves Me All The Way (1970)
TTITLE1=We Sure Can Love Each Other (1971)
TTITLE2=The Deepening Snow (1971)
TTITLE3=Good Lovin' (Makes It Right) (1971)
TTITLE4=Bedtime Story (1971)
TTITLE5=Till I Get It Right (1972)
TTITLE6=My Man (Understands) (1972)
TTITLE7=We're Gonna Hold On (with George Jones) (1973)
TTITLE8=(We're Not) The Jet Set (with George Jones)) (1973)
TTITLE9=Another Lonely Song) (1973)
TTITLE10=I Don't Think About Him No More) (1974)
TTITLE11=No Charge (with George Jones)) (1974)
TTITLE12=Woman To Woman) (1974)
TTITLE13=This Time I Almost Made It) (1974)
TTITLE14=Near You (with George Jones)) (1974)
TTITLE15=I Still Believe In Fairy Tales) (1975)
TTITLE16='Til I Can Make It On My Own) (1975)
TTITLE17=Golden Ring (with George Jones) (1976)
TTITLE18=Did You Ever (with George Jones) (1976)
TTITLE19=You And Me (1976)
TTITLE20=Let's Get Together (One Last Time) (1977)
TTITLE21=One Of A Kind) (1977)
TTITLE22=Southern California (with George Jones)) (1977)
TTITLE23=Dear Daughters) (1977)
TTITLE24=They Call It Making Love) (1978)
EXTD=
EXTT0=
EXTT1=
EXTT2=
EXTT3=
EXTT4=
EXTT5=
EXTT6=
EXTT7=With George Jones
EXTT8=With George Jones
EXTT9=
EXTT10=
EXTT11=With George and Tina
EXTT12=
EXTT13=
EXTT14=With George Jones
EXTT15=
EXTT16=
EXTT17=With George Jones
EXTT18=With George Jones
EXTT19=
EXTT20=
EXTT21=
EXTT22=With George Jones
EXTT23=
EXTT24=
PLAYORDER=
